PathFileType	4	(X/Y/Z)	Patient4_TMGait_0pt8_01_right_07.trc.trc
DataRate	CameraRate	NumFrames	NumMarkers	Units	OrigDataRate	OrigDataStartFrame	OrigNumFrames
86.956521739130	86.956521739130	5	33	mm	86.956521739130	71	       141
Frame#	Time	Sacral			L.Shoulder			Chest			R.Shoulder			Neck			R.ASIS			L.ASIS			R.Thigh.Superior			R.Thigh.Lateral			R.Thigh.Inferior			R.Patella			L.Thigh.Superior			L.Thigh.Lateral			L.Thigh.Inferior			L.Patella			L.Shank.Superior			L.Shank.Lateral			L.Shank.Inferior			R.Shank.Superior			R.Shank.Lateral			R.Shank.Inferior			R.Heel			R.Midfoot.Superior			R.Midfoot.Lateral			R.Toe			L.Heel			L.Midfoot.Lateral			L.Midfoot.Superior			L.Toe			L.Elbow			L.Wrist			R.Elbow			R.Wrist			
		X1	Y1	Z1	X2	Y2	Z2	X3	Y3	Z3	X4	Y4	Z4	X5	Y5	Z5	X6	Y6	Z6	X7	Y7	Z7	X8	Y8	Z8	X9	Y9	Z9	X10	Y10	Z10	X11	Y11	Z11	X12	Y12	Z12	X13	Y13	Z13	X14	Y14	Z14	X15	Y15	Z15	X16	Y16	Z16	X17	Y17	Z17	X18	Y18	Z18	X19	Y19	Z19	X20	Y20	Z20	X21	Y21	Z21	X22	Y22	Z22	X23	Y23	Z23	X24	Y24	Z24	X25	Y25	Z25	X26	Y26	Z26	X27	Y27	Z27	X28	Y28	Z28	X29	Y29	Z29	X30	Y30	Z30	X31	Y31	Z31	X32	Y32	Z32	X33	Y33	Z33	

71	8.385000000000	851.327873885531	1000.509980396238	534.465996800687	1018.320524477537	1420.119301249629	336.740957934287	1135.752166004453	1348.309493240721	486.893375943963	1075.135654113808	1427.633459040499	666.826349304242	1026.599707682308	1482.620042435001	494.209327019859	1080.291822631257	931.803110812572	640.173705723636	1053.872033071280	944.733674531029	363.829479035709	1069.327347472642	718.819278108805	612.335436359277	959.390263328914	628.850695050013	672.925146392903	1015.437483837630	561.678206267989	592.142678759227	992.889373638292	477.456590630235	594.925889500938	1131.065231278551	770.899161934201	398.323608401759	1090.327686849832	639.934643965423	315.372987257024	1197.350688089839	587.118130163038	376.248264749472	1228.667835224361	526.261482231925	371.975378869691	1218.374115606555	454.291974819732	362.094788951267	1164.881434513752	317.933299861098	315.437102490332	1264.232311306973	229.944971829528	367.624759101946	952.682879078968	395.743789541276	600.336497617371	869.053286056143	300.914258810156	661.421097982180	896.795966109247	203.397455708661	593.746605289321	745.224007244029	46.079115506554	560.027849359784	918.882932022997	96.817326003460	594.886500797983	829.105906996654	37.154403390323	632.579240178742	1037.467827483263	39.750471182023	619.872187989395	1203.712799846283	44.438179237500	412.715439294930	1273.199490734350	54.297849626412	329.200300619131	1336.084263259413	138.746261022506	345.263466363107	1469.963545074561	122.838303163220	313.435807708052	862.473377326638	1101.642451904481	252.645682313481	799.633406548394	850.532607820578	278.553412179513	1241.051154675152	1136.238753501058	770.676475759508	1447.020373418218	1256.245580180430	697.858978063581	
72	8.396500000000	851.840612791522	999.179227065626	531.558503056205	1018.114761991171	1418.915101836850	334.802149508665	1135.503132192626	1347.259342341326	485.038493121947	1074.425394741977	1426.463614006239	664.817590706027	1026.170422209073	1481.285922872460	492.363313200585	1080.048332905835	930.368843707480	638.649388596270	1055.157966609332	943.042071904342	361.910851410844	1068.388688476096	717.214900536896	611.585139459119	957.384700844093	627.991557209613	671.545971766295	1013.603434549820	560.104827824098	591.467160359357	990.118492175128	475.588701417932	594.075300109634	1132.452430429476	769.303194707305	397.223811201637	1090.460948242757	637.283696850357	316.481921475908	1197.803137302733	585.028162256009	376.725372307212	1228.076163333551	522.606086822339	373.291363775820	1216.476242033203	449.945076621263	363.960046762192	1159.562473242031	314.506772782506	318.801006190455	1256.859782726615	224.654588142832	371.398792286677	948.668042352037	394.331321232319	599.571727388356	863.389719352580	301.051300594084	660.845403940921	889.508415512626	202.888942304895	593.551542902215	736.060378208836	46.745620181358	560.276256106190	909.897914988871	96.894784493850	595.093271943661	819.958158891671	37.277812580385	632.713046909638	1028.290496970440	39.513481162696	619.987490087532	1191.602137921038	42.092829813777	417.514176452273	1260.560736811649	50.011940290049	333.352693573465	1326.452921536615	131.699582928512	349.440400681142	1459.469458116998	111.061184296622	316.228093218943	858.521687396541	1102.813492121387	252.040357977912	791.935290578093	852.712443280025	279.047465847723	1244.463376588092	1138.423312422903	768.280945505039	1445.506465544027	1265.301745100688	694.665029937444	
73	8.408000000000	852.545606274334	997.939262661010	528.503866490681	1018.061281996897	1417.756591601917	332.668833864324	1135.369256664473	1346.341660559151	483.054448388912	1073.742585430439	1425.437895466939	662.680733435368	1025.839348600058	1480.073447943074	490.283282557144	1079.977250189077	929.006513281819	636.991945625133	1056.612533648718	941.518961880972	359.922302901280	1067.758806669770	715.695432407924	610.831847671098	955.653839394575	627.186642313532	670.024328235025	1012.209642061280	558.545090436973	590.774363720196	987.813911161310	473.638435798671	593.208307462950	1133.923490631379	767.696260887163	396.024326779073	1090.539032148665	634.836219525667	317.462049752492	1198.090092830080	582.943226780699	377.252380875743	1227.096090448241	518.911932055893	374.733236834561	1214.246945678369	445.628751158523	365.755593338227	1153.981694055666	311.201901705221	321.813244560028	1249.068706938424	219.428432170187	374.978300994409	945.013872687674	392.919407969481	598.754426925359	857.932125786536	301.346454722960	660.192951601746	882.385424998164	202.487270625003	593.376693955532	726.914436836721	47.663382930807	560.576759304456	901.004147242443	97.003207035724	595.332522492551	810.841627084749	37.473339949510	632.868975035359	1019.148675725160	39.272806504268	620.104676737143	1178.707063035141	40.029485760141	421.656986894185	1247.403803215055	46.020404722740	337.078844236650	1316.393749115496	124.677442480715	353.597426659853	1448.572463127703	99.007720583161	319.421215960184	855.432511994002	1103.629190924920	251.229568813416	785.536133271589	854.490435522462	279.188256089450	1246.955051587185	1140.185943573198	766.155700776926	1443.432957617580	1272.964906763579	691.798008261151	
74	8.419500000000	853.408172352674	996.849024239730	525.350069319316	1018.181727006549	1416.690204335879	330.349225546205	1135.362376687817	1345.600071045165	480.957150064976	1073.102585818858	1424.610295871858	660.428101149669	1025.624812911797	1479.035408604663	487.971685836245	1080.069081979484	927.756374603314	635.187788032343	1058.188696968259	940.225625958151	357.891768833998	1067.398371866457	714.303913674859	610.012211206368	954.219511834632	626.460278525051	668.373711625541	1011.240958592895	557.047575675205	590.024331224084	986.002004560126	471.623104695451	592.343167763646	1135.413376650535	766.125741434966	394.748081772660	1090.545388084548	632.716307084664	318.170644039712	1198.154200558901	580.940268233574	377.740289260405	1225.714461311144	515.370266054807	376.148280477577	1211.760649612425	441.575648080416	367.320604798574	1148.443859458780	308.183530297443	324.252721461835	1241.268647371580	214.576919427699	378.148697336780	941.714881742238	391.546879578477	597.906947285554	852.693247182923	301.845236633995	659.480508307694	875.452308747937	202.240766694005	593.237823738706	717.797513375807	48.910829342962	560.935986628687	892.232932289481	97.144958465375	595.609631816566	801.761031793914	37.779337046140	633.051353741621	1010.040695208316	39.041418165543	620.212497384161	1165.726730778258	38.386285886864	425.000205544453	1234.404707709419	42.560020257116	340.220186121645	1306.388582116491	118.107246693640	357.494834876089	1437.778434237907	87.423749520535	322.781143340569	853.256260424813	1104.082852620411	250.167608380760	780.509546120779	855.829286123902	278.934655609116	1248.493609040036	1141.465268880536	764.323580827896	1440.859535952626	1279.220641269511	689.277577692223	
75	8.431000000000	854.374498319332	995.972560876019	522.148094881488	1018.487778467647	1415.769587328771	327.860393884492	1135.488807076709	1345.077819606976	478.765273650620	1072.526706564486	1424.039043162590	658.073159146653	1025.540582461860	1478.227412653888	485.441132290026	1080.300135658856	926.668531950228	633.225064340583	1059.825888688780	939.224898902297	355.837199393047	1067.281913901461	713.093512393142	609.052108013336	953.143969910162	625.828324315492	666.608752407570	1010.728933330062	555.664716379137	589.171908058915	984.758705194657	469.561350982750	591.504275405921	1136.865359468053	764.676501575475	393.407332295895	1090.494238084207	631.047502532927	318.474979429841	1197.972566326149	579.122046676332	378.085573849868	1223.971322647861	512.174547159496	377.362616601444	1209.108349343939	437.990332220105	368.511405022276	1143.191451367538	305.605123368605	325.933033637817	1233.759590860337	210.345331856201	380.733326956905	938.812748810341	390.249310765409	597.058455804852	847.727574448170	302.597950374807	658.728351884145	868.764380038042	202.201631005392	593.152550981623	708.736338665103	50.595687374573	561.358197136542	883.630716483573	97.326595190758	595.932892470028	792.727687150489	38.255252598245	633.262388695555	1000.961842942016	38.826787261490	620.299115187768	1153.194046960878	37.230329502180	427.484194892186	1222.041527833531	39.777066687245	342.673513361550	1296.749172741364	112.332738524914	360.907360014872	1427.417181978775	76.958656742994	326.028618986821	852.034746062246	1104.183306663895	248.817029419442	776.927386548809	856.703414451467	278.246050235932	1249.043256281485	1142.218806055571	762.799925961446	1437.839517200909	1284.054299207718	687.116405016924	
